<svg width="48" height="48" viewBox="0 0 48 48" fill="none" xmlns="http://www.w3.org/2000/svg">
<path d="M0 19.2C0 12.4794 0 9.11905 1.30792 6.55211C2.4584 4.29417 4.29417 2.4584 6.55211 1.30792C9.11905 0 12.4794 0 19.2 0H28.8C35.5206 0 38.8809 0 41.4479 1.30792C43.7058 2.4584 45.5416 4.29417 46.6921 6.55211C48 9.11905 48 12.4794 48 19.2V28.8C48 35.5206 48 38.8809 46.6921 41.4479C45.5416 43.7058 43.7058 45.5416 41.4479 46.6921C38.8809 48 35.5206 48 28.8 48H19.2C12.4794 48 9.11905 48 6.55211 46.6921C4.29417 45.5416 2.4584 43.7058 1.30792 41.4479C0 38.8809 0 35.5206 0 28.8V19.2Z" fill="#0A0A0A"/>
<g filter="url(#filter0_d_18816_1438)">
<path d="M34.4964 23.8269C34.5982 23.1428 34.9676 22.5272 35.5233 22.1155C36.079 21.7037 36.7755 21.5296 37.4596 21.6314L38.2273 16.4726C38.3291 15.7885 38.155 15.092 37.7432 14.5363C37.3315 13.9805 36.6428 13.4847 35.9587 13.3829L15.3966 13.3829C14.7125 13.2811 14.0159 13.4552 13.4602 13.867C12.9045 14.2787 12.5351 14.8943 12.4333 15.5784L11.6656 20.7372C12.3497 20.839 12.9654 21.2084 13.3771 21.7641C13.7889 22.3199 13.963 23.0164 13.8612 23.7005C13.7594 24.3846 13.39 25.0002 12.8343 25.412C12.2786 25.8237 11.582 25.9978 10.8979 25.896L10.1302 31.0548C10.0284 31.7389 10.2026 32.4354 10.6143 32.9912C11.0261 33.5469 11.7147 34.0427 12.3988 34.1445L32.961 34.1445C33.6451 34.2463 34.3416 34.0722 34.8973 33.6605C35.453 33.2487 35.8224 32.6331 35.9242 31.949L36.6919 26.7902C36.0078 26.6884 35.3922 26.319 34.9804 25.7633C34.5687 25.2076 34.3946 24.511 34.4964 23.8269Z" fill="white"/>
</g>
<defs>
<filter id="filter0_d_18816_1438" x="7.10184" y="5.25" width="34.1539" height="42" filterUnits="userSpaceOnUse" color-interpolation-filters="sRGB">
<feFlood flood-opacity="0" result="BackgroundImageFix"/>
<feColorMatrix in="SourceAlpha" type="matrix" values="0 0 0 0 0 0 0 0 0 0 0 0 0 0 0 0 0 0 127 0" result="hardAlpha"/>
<feMorphology radius="1.5" operator="erode" in="SourceAlpha" result="effect1_dropShadow_18816_1438"/>
<feOffset dy="2.25"/>
<feGaussianBlur stdDeviation="2.25"/>
<feComposite in2="hardAlpha" operator="out"/>
<feColorMatrix type="matrix" values="0 0 0 0 0.141176 0 0 0 0 0.141176 0 0 0 0 0.141176 0 0 0 0.1 0"/>
<feBlend mode="normal" in2="BackgroundImageFix" result="effect1_dropShadow_18816_1438"/>
<feBlend mode="normal" in="SourceGraphic" in2="effect1_dropShadow_18816_1438" result="shape"/>
</filter>
</defs>
</svg>
