<svg width="433" height="47" viewBox="0 0 433 47" fill="none" xmlns="http://www.w3.org/2000/svg">
<g clip-path="url(#clip0_18816_1495)">
<path d="M7.25886 3.48535C8.46004 2.59536 9.96572 2.21843 11.4444 2.43848H55.8897C57.3684 2.65852 58.8571 3.73046 59.7471 4.93164C60.6371 6.13283 61.0131 7.6385 60.793 9.11719L59.1339 20.2676C57.6552 20.0476 56.1494 20.4245 54.9483 21.3145C53.7473 22.2044 52.9486 23.5351 52.7286 25.0137C52.5085 26.4924 52.8855 27.998 53.7755 29.1992C54.6655 30.4003 55.9961 31.1989 57.4747 31.4189L55.8155 42.5693C55.5955 44.0479 54.7968 45.3786 53.5958 46.2686C52.3946 47.1585 50.8889 47.5354 49.4102 47.3154H4.96491C3.48622 47.0954 1.99749 46.0235 1.10749 44.8223C0.217508 43.6211 -0.158453 42.1154 0.0615921 40.6367L1.72077 29.4863C3.19938 29.7063 4.7052 29.3294 5.90632 28.4395C7.1073 27.5495 7.90602 26.2188 8.12605 24.7402C8.34604 23.2616 7.96913 21.7558 7.07917 20.5547C6.18918 19.3536 4.85855 18.555 3.37995 18.335L5.03913 7.18457C5.25916 5.70597 6.05779 4.37535 7.25886 3.48535ZM282.819 11.1826C284.486 11.1827 286.114 11.3795 287.705 11.7734C289.311 12.1674 290.728 12.8185 291.955 13.7275C293.198 14.6215 294.107 15.8413 294.683 17.3867C295.274 18.9322 295.372 20.8644 294.978 23.1826L291.092 46.5459H283.183L284.001 41.75H283.728C283.076 42.7197 282.228 43.6291 281.183 44.4775C280.137 45.3109 278.895 45.9848 277.455 46.5C276.016 47 274.387 47.25 272.569 47.25C270.357 47.25 268.432 46.8562 266.796 46.0684C265.16 45.2654 263.955 44.0838 263.183 42.5234C262.425 40.9628 262.236 39.0379 262.614 36.75C262.948 34.7805 263.584 33.152 264.524 31.8643C265.478 30.5764 266.645 29.5462 268.024 28.7734C269.417 27.9856 270.933 27.3939 272.569 27C274.221 26.6061 275.902 26.3185 277.614 26.1367C279.705 25.9246 281.395 25.7277 282.683 25.5459C283.986 25.3641 284.963 25.0912 285.614 24.7275C286.266 24.3488 286.66 23.7727 286.796 23V22.8643C287.069 21.1521 286.796 19.8261 285.978 18.8867C285.159 17.9475 283.796 17.4775 281.887 17.4775C279.887 17.4776 278.205 17.9172 276.842 18.7959C275.478 19.6746 274.486 20.7123 273.864 21.9092L266.41 20.8184C267.35 18.6973 268.637 16.9242 270.274 15.5C271.91 14.0607 273.796 12.9855 275.933 12.2734C278.084 11.5462 280.38 11.1826 282.819 11.1826ZM420.156 11.1826C421.823 11.1826 423.452 11.3795 425.043 11.7734C426.649 12.1674 428.066 12.8185 429.293 13.7275C430.535 14.6214 431.444 15.8414 432.02 17.3867C432.611 18.9322 432.709 20.8644 432.315 23.1826L428.429 46.5459H420.52L421.338 41.75H421.065C420.414 42.7197 419.565 43.6291 418.52 44.4775C417.474 45.3107 416.232 45.9849 414.793 46.5C413.354 47 411.725 47.25 409.906 47.25C407.694 47.25 405.77 46.8562 404.134 46.0684C402.498 45.2653 401.292 44.084 400.52 42.5234C399.762 40.9628 399.573 39.0379 399.952 36.75C400.286 34.7805 400.922 33.152 401.861 31.8643C402.816 30.5764 403.983 29.5461 405.361 28.7734C406.755 27.9856 408.27 27.3939 409.906 27C411.558 26.6061 413.24 26.3185 414.952 26.1367C417.043 25.9246 418.732 25.7277 420.02 25.5459C421.323 25.3641 422.301 25.0912 422.952 24.7275C423.604 24.3487 423.998 23.7726 424.134 23V22.8643C424.407 21.1521 424.134 19.8261 423.315 18.8867C422.497 17.9474 421.134 17.4776 419.225 17.4775C417.225 17.4775 415.542 17.9171 414.179 18.7959C412.815 19.6745 411.823 20.7125 411.202 21.9092L403.747 20.8184C404.687 18.6972 405.975 16.9242 407.611 15.5C409.248 14.0609 411.134 12.9855 413.27 12.2734C415.421 11.5462 417.717 11.1826 420.156 11.1826ZM124.43 11.1826C127.263 11.1826 129.68 11.7056 131.68 12.751C133.695 13.7813 135.195 15.2438 136.18 17.1377C137.18 19.0164 137.566 21.2136 137.339 23.7285H129.453C129.423 22.0468 128.9 20.6446 127.885 19.5234C126.87 18.3871 125.384 17.8193 123.43 17.8193C121.733 17.8194 120.172 18.2736 118.748 19.1826C117.324 20.0765 116.12 21.3645 115.135 23.0459C114.15 24.7276 113.468 26.7435 113.089 29.0918C112.695 31.4704 112.702 33.5165 113.111 35.2285C113.536 36.9252 114.301 38.236 115.407 39.1602C116.528 40.0691 117.945 40.5234 119.657 40.5234C120.869 40.5234 121.999 40.2962 123.044 39.8418C124.089 39.3722 125.006 38.6978 125.794 37.8193C126.597 36.9407 127.225 35.8716 127.68 34.6143H135.544C134.923 37.0837 133.816 39.2737 132.226 41.1826C130.65 43.0763 128.695 44.562 126.361 45.6377C124.028 46.698 121.399 47.2285 118.476 47.2285C114.991 47.2285 112.127 46.4628 109.885 44.9326C107.643 43.4024 106.074 41.2886 105.18 38.5918C104.301 35.8799 104.157 32.7584 104.748 29.2285C105.324 25.6833 106.514 22.5538 108.316 19.8418C110.134 17.1148 112.423 14.9936 115.18 13.4785C117.937 11.9483 121.021 11.1827 124.43 11.1826ZM192.368 11.1826C194.52 11.1826 196.498 11.5306 198.301 12.2275C200.104 12.9093 201.626 13.9701 202.868 15.4092C204.111 16.8485 204.967 18.6821 205.437 20.9092C205.906 23.1213 205.883 25.7578 205.368 28.8184L204.982 31.3418H183.346L184.368 25.7959H197.96C198.233 24.2203 198.141 22.819 197.687 21.5918C197.232 20.3494 196.475 19.3713 195.414 18.6592C194.354 17.9471 193.027 17.5918 191.437 17.5918C189.815 17.5918 188.301 18.0085 186.892 18.8418C185.498 19.66 184.323 20.7204 183.368 22.0234C182.414 23.3263 181.808 24.6975 181.551 26.1367L180.618 31.4551C180.285 33.6368 180.361 35.4172 180.846 36.7959C181.331 38.1747 182.18 39.1903 183.392 39.8418C184.604 40.4932 186.134 40.8184 187.982 40.8184C189.195 40.8183 190.316 40.6517 191.346 40.3184C192.376 39.985 193.293 39.485 194.096 38.8184C194.914 38.1365 195.596 37.3032 196.142 36.3184L203.664 37.1826C202.831 39.2127 201.611 40.985 200.005 42.5C198.399 43.9999 196.475 45.1667 194.232 46C192.005 46.8181 189.528 47.2275 186.801 47.2275C183.301 47.2275 180.406 46.5004 178.118 45.0459C175.831 43.5762 174.225 41.5001 173.301 38.8184C172.392 36.1214 172.24 32.9473 172.846 29.2959C173.437 25.705 174.642 22.5539 176.46 19.8418C178.278 17.1146 180.55 14.9927 183.277 13.4775C186.02 11.9473 189.05 11.1827 192.368 11.1826ZM248.591 11.1826C252.742 11.1826 255.872 12.0535 257.978 13.7959C260.084 15.5383 261.174 17.8946 261.25 20.8643L253.682 21.6826C253.606 20.91 253.371 20.19 252.978 19.5234C252.584 18.8569 251.993 18.3265 251.205 17.9326C250.432 17.5236 249.432 17.3184 248.205 17.3184C246.417 17.3184 244.849 17.7204 243.5 18.5234C242.152 19.3264 241.387 20.3568 241.205 21.6143C241.039 22.5535 241.266 23.3183 241.887 23.9092C242.508 24.5 243.659 25.0001 245.341 25.4092L251.114 26.6826C254.296 27.3947 256.584 28.5459 257.978 30.1367C259.387 31.7276 259.879 33.811 259.455 36.3867C259.092 38.5381 258.152 40.432 256.637 42.0684C255.122 43.6896 253.182 44.9552 250.818 45.8643C248.47 46.7733 245.864 47.2275 243 47.2275C238.652 47.2275 235.304 46.3263 232.955 44.5234C230.622 42.7053 229.463 40.2051 229.478 37.0234L237.568 36.25C237.659 37.8257 238.213 39.0153 239.228 39.8184C240.243 40.6062 241.652 41.0083 243.455 41.0234C245.485 41.0385 247.197 40.6136 248.591 39.75C250 38.8712 250.796 37.8035 250.978 36.5459C251.129 35.6065 250.894 34.8409 250.273 34.25C249.666 33.6593 248.583 33.1902 247.023 32.8418L241.296 31.5918C238.054 30.8797 235.743 29.6745 234.364 27.9775C233.001 26.2654 232.538 24.1061 232.978 21.5C233.341 19.379 234.228 17.5536 235.637 16.0234C237.061 14.478 238.887 13.2884 241.114 12.4551C243.341 11.6067 245.834 11.1826 248.591 11.1826ZM333.509 11.1826C335.66 11.1826 337.638 11.5306 339.44 12.2275C341.243 12.9093 342.766 13.9699 344.009 15.4092C345.251 16.8485 346.108 18.682 346.577 20.9092C347.047 23.1212 347.024 25.7579 346.509 28.8184L346.122 31.3418H324.486L325.509 25.7959H339.1C339.372 24.2203 339.282 22.819 338.827 21.5918C338.373 20.3494 337.615 19.3713 336.555 18.6592C335.494 17.9471 334.168 17.5918 332.577 17.5918C330.956 17.5918 329.44 18.0085 328.031 18.8418C326.638 19.6599 325.463 20.7205 324.509 22.0234C323.554 23.3264 322.948 24.6974 322.69 26.1367L321.759 31.4551C321.426 33.6369 321.502 35.4171 321.986 36.7959C322.471 38.1746 323.319 39.1903 324.531 39.8418C325.743 40.4933 327.274 40.8183 329.122 40.8184C330.334 40.8184 331.456 40.6517 332.486 40.3184C333.517 39.985 334.433 39.4849 335.236 38.8184C336.054 38.1366 336.736 37.3031 337.281 36.3184L344.805 37.1826C343.971 39.2127 342.751 40.985 341.146 42.5C339.54 44 337.615 45.1667 335.372 46C333.145 46.8181 330.668 47.2275 327.94 47.2275C324.441 47.2275 321.547 46.5004 319.259 45.0459C316.971 43.5762 315.365 41.5002 314.44 38.8184C313.531 36.1214 313.38 32.9473 313.986 29.2959C314.577 25.7052 315.782 22.5538 317.6 19.8418C319.418 17.1145 321.691 14.9927 324.418 13.4775C327.16 11.9473 330.191 11.1826 333.509 11.1826ZM386.025 11.1826C388.859 11.1826 391.276 11.7046 393.275 12.75C395.291 13.7803 396.791 15.2428 397.775 17.1367C398.775 19.0155 399.162 21.2125 398.935 23.7275H391.048C391.018 22.0458 390.495 20.6446 389.48 19.5234C388.464 18.3871 386.98 17.8184 385.025 17.8184C383.329 17.8184 381.768 18.2736 380.344 19.1826C378.92 20.0766 377.714 21.3641 376.73 23.0459C375.745 24.7277 375.063 26.7434 374.685 29.0918C374.291 31.4703 374.298 33.5155 374.707 35.2275C375.131 36.9245 375.897 38.2349 377.003 39.1592C378.124 40.0682 379.541 40.5234 381.253 40.5234C382.465 40.5234 383.594 40.2962 384.639 39.8418C385.684 39.3721 386.601 38.6971 387.389 37.8184C388.192 36.9396 388.821 35.8718 389.275 34.6143H397.139C396.518 37.0839 395.411 39.2736 393.82 41.1826C392.245 43.0764 390.29 44.561 387.957 45.6367C385.624 46.6973 382.995 47.2275 380.07 47.2275C376.586 47.2275 373.722 46.4629 371.48 44.9326C369.237 43.4024 367.669 41.2885 366.775 38.5918C365.897 35.8797 365.753 32.7578 366.344 29.2275C366.92 25.6824 368.108 22.5537 369.911 19.8418C371.729 17.1145 374.018 14.9927 376.775 13.4775C379.533 11.9473 382.616 11.1826 386.025 11.1826ZM354.383 37.1367C355.731 37.1367 356.875 37.6221 357.815 38.5918C358.769 39.5614 359.201 40.7127 359.11 42.0459C359.05 42.9853 358.761 43.8342 358.246 44.5918C357.746 45.3492 357.11 45.9474 356.337 46.3867C355.564 46.826 354.731 47.0459 353.837 47.0459C352.443 47.0458 351.292 46.5612 350.383 45.5918C349.474 44.6221 349.05 43.4398 349.11 42.0459C349.171 40.6823 349.724 39.5229 350.77 38.5684C351.815 37.6141 353.019 37.1367 354.383 37.1367ZM82.5147 11.6367H89.4298L88.3614 18H81.4551L78.4522 36.0459C78.2856 37.152 78.3158 38.0009 78.543 38.5918C78.7855 39.1674 79.172 39.5614 79.7022 39.7734C80.2476 39.9855 80.8613 40.0918 81.543 40.0918C82.043 40.0918 82.5128 40.0533 82.9522 39.9775C83.3913 39.8867 83.7396 39.8189 83.9971 39.7734L84.3614 46.2051C83.8615 46.3566 83.1872 46.5233 82.3389 46.7051C81.5057 46.8869 80.5054 46.9931 79.3389 47.0234C77.248 47.0689 75.4293 46.7502 73.8839 46.0684C72.3537 45.3714 71.2327 44.3035 70.5206 42.8643C69.8236 41.4097 69.6642 39.591 70.043 37.4092L73.6739 18H68.3155L69.3614 11.6367H74.8633L75.6798 7.27344L83.9063 3.27344L82.5147 11.6367ZM222.821 11.6367H229.736L228.668 18H221.762L218.759 36.0459C218.592 37.152 218.622 38.0009 218.85 38.5918C219.092 39.1674 219.479 39.5614 220.009 39.7734C220.554 39.9855 221.168 40.0918 221.85 40.0918C222.35 40.0918 222.819 40.0533 223.259 39.9775C223.698 39.8867 224.046 39.8189 224.304 39.7734L224.668 46.2051C224.168 46.3566 223.494 46.5233 222.646 46.7051C221.812 46.8869 220.812 46.9931 219.646 47.0234C217.555 47.0689 215.736 46.7502 214.19 46.0684C212.66 45.3714 211.539 44.3035 210.827 42.8643C210.13 41.4097 209.971 39.591 210.35 37.4092L213.981 18H208.622L209.668 11.6367H215.17L215.986 7.27344L224.213 3.27344L222.821 11.6367ZM96.7989 46.5459H88.5723L94.3897 11.6367H102.617L96.7989 46.5459ZM150.052 25.6592H150.584L165.516 11.6367H175.13L159.091 26.7168L170.107 46.5459H160.266L152.065 31.6172L148.534 34.7969L146.584 46.5459H138.357L146.084 0H154.312L150.052 25.6592ZM305.672 46.5459H297.444L305.172 0H313.399L305.672 46.5459ZM285.66 29.9092C285.357 30.1213 284.887 30.3182 284.251 30.5C283.615 30.6818 282.902 30.8412 282.114 30.9775C281.342 31.1139 280.577 31.2358 279.819 31.3418C279.062 31.4479 278.41 31.5385 277.864 31.6143C276.607 31.7809 275.456 32.0539 274.41 32.4326C273.38 32.8114 272.524 33.3416 271.842 34.0234C271.175 34.6901 270.759 35.5537 270.592 36.6143C270.349 38.1142 270.706 39.258 271.66 40.0459C272.615 40.8185 273.956 41.2051 275.683 41.2051C277.334 41.2051 278.819 40.879 280.137 40.2275C281.455 39.561 282.538 38.6825 283.387 37.5918C284.235 36.501 284.765 35.3112 284.978 34.0234L285.66 29.9092ZM422.997 29.9092C422.694 30.1213 422.224 30.3182 421.588 30.5C420.952 30.6818 420.24 30.8412 419.452 30.9775C418.679 31.1139 417.914 31.2357 417.156 31.3418C416.399 31.4478 415.748 31.5385 415.202 31.6143C413.945 31.7809 412.793 32.0538 411.747 32.4326C410.717 32.8114 409.861 33.3417 409.179 34.0234C408.512 34.6901 408.095 35.5538 407.929 36.6143C407.686 38.1141 408.043 39.2581 408.997 40.0459C409.952 40.8186 411.293 41.205 413.02 41.2051C414.671 41.2051 416.156 40.8791 417.475 40.2275C418.793 39.5609 419.876 38.6826 420.725 37.5918C421.573 36.501 422.103 35.3112 422.315 34.0234L422.997 29.9092ZM103.35 6.5459H95.1221L96.1173 0.636719H104.345L103.35 6.5459Z" fill="#0A0A0A"/>
</g>
<defs>
<clipPath id="clip0_18816_1495">
<rect width="433" height="47" fill="white"/>
</clipPath>
</defs>
</svg>
