<svg width="32" height="32" viewBox="0 0 32 32" fill="none" xmlns="http://www.w3.org/2000/svg">
  <rect width="32" height="32" rx="6" fill="#000000"/>
  <path d="M12 10V12M12 16V18M12 22V24M8 8C8 6.89543 8.89543 6 10 6H22C23.1046 6 24 6.89543 24 8V11C25.1046 11 26 11.8954 26 13C26 14.1046 25.1046 15 24 15V19C25.1046 19 26 19.8954 26 21C26 22.1046 25.1046 23 24 23V24C24 25.1046 23.1046 26 22 26H10C8.89543 26 8 25.1046 8 24V23C6.89543 23 6 22.1046 6 21C6 19.8954 6.89543 19 8 19V15C6.89543 15 6 14.1046 6 13C6 11.8954 6.89543 11 8 11V8Z" stroke="white" stroke-width="1.5" stroke-linecap="round" stroke-linejoin="round"/>
</svg>
